<svg width="800" height="568" viewBox="0 0 800 568" fill="none" xmlns="http://www.w3.org/2000/svg">
<path d="M691.667 67.3332H621.416L592.651 9.88251C589.816 4.23184 584.051 0.666504 577.733 0.666504H411.067C404.667 0.666504 398.816 4.34917 396.032 10.1332L368.632 67.3332H233.333C242.533 67.3332 250 59.8825 250 50.6665C250 41.4505 242.549 33.9998 233.333 33.9998H166.667C157.451 33.9998 150 41.4505 150 50.6665C150 59.8825 157.451 67.3332 166.667 67.3332H124.965C64.8667 67.3332 0 108.883 0 176V442.683C0 506.749 60.7333 567.333 124.965 567.333H691.667C758.6 567.333 800 502.616 800 442.701V176C800 112.016 755.467 67.3332 691.667 67.3332ZM766.667 442.683C766.667 486.584 737.984 534 691.667 534H124.965C78.7333 534 33.3333 488.784 33.3333 442.701V176C33.3333 129.483 80.8827 100.667 124.965 100.667H379.115C385.499 100.667 391.365 96.9838 394.131 91.1998L421.547 33.9998H567.413L596.179 91.4505C599.013 97.1012 604.779 100.667 611.096 100.667H691.664C737.197 100.667 766.664 130.267 766.664 176V442.683H766.667Z" fill="#F2D7F2"/>
<path d="M500 117.333C398.902 117.333 316.651 199.6 316.651 300.666C316.651 401.765 398.883 484.016 500 484.016C601.102 484.016 683.368 401.765 683.368 300.666C683.368 199.6 601.102 117.333 500 117.333ZM500 450.682C417.299 450.682 349.984 383.384 349.984 300.666C349.984 217.949 417.283 150.666 500 150.666C582.718 150.666 650.035 217.949 650.035 300.666C650.035 383.384 582.702 450.682 500 450.682Z" fill="#F2D7F2"/>
<path d="M500 184C435.683 184 383.317 236.349 383.317 300.667C383.317 364.984 435.683 417.333 500 417.333C564.349 417.333 616.701 364.984 616.701 300.667C616.701 236.349 564.349 184 500 184ZM500 384C454.035 384 416.632 346.616 416.632 300.667C416.632 254.717 454.035 217.333 500 217.333C545.965 217.333 583.368 254.717 583.368 300.667C583.368 346.616 545.965 384 500 384Z" fill="#F2D7F2"/>
<path d="M150 117.333C140.784 117.333 133.333 124.784 133.333 134V467.333C133.333 476.549 140.784 484 150 484C159.2 484 166.667 476.549 166.667 467.333V134C166.667 124.784 159.216 117.333 150 117.333Z" fill="#F2D7F2"/>
</svg>
