<?xml version="1.0" encoding="iso-8859-1"?>
<!-- Uploaded to: SVG Repo, www.svgrepo.com, Generator: SVG Repo Mixer Tools -->
<svg fill="#000000" height="800px" width="800px" version="1.1" id="Layer_1" xmlns="http://www.w3.org/2000/svg" xmlns:xlink="http://www.w3.org/1999/xlink" 
	 viewBox="0 0 300 300" xml:space="preserve">
<g>
	<g>
		<g>
			<path d="M259.375,68.75h-26.344l-10.787-21.544c-1.063-2.119-3.225-3.456-5.594-3.456h-62.5c-2.4,0-4.594,1.381-5.638,3.55
				l-10.275,21.45H87.5c3.45,0,6.25-2.794,6.25-6.25s-2.794-6.25-6.25-6.25h-25c-3.456,0-6.25,2.794-6.25,6.25s2.794,6.25,6.25,6.25
				H46.862C24.325,68.75,0,84.331,0,109.5v100.006c0,24.025,22.775,46.744,46.862,46.744h212.513
				c25.1,0,40.625-24.269,40.625-46.737V109.5C300,85.506,283.3,68.75,259.375,68.75z M287.5,209.506
				c0,16.463-10.756,34.244-28.125,34.244H46.862c-17.337,0-34.362-16.956-34.362-34.237V109.5c0-17.444,17.831-28.25,34.362-28.25
				h95.306c2.394,0,4.594-1.381,5.631-3.55l10.281-21.45h54.7l10.787,21.544c1.063,2.119,3.225,3.456,5.594,3.456h30.213
				c17.075,0,28.125,11.1,28.125,28.25V209.506z"/>
			<path d="M187.5,87.5c-37.912,0-68.756,30.85-68.756,68.75c0,37.912,30.837,68.756,68.756,68.756
				c37.913,0,68.763-30.844,68.763-68.756C256.263,118.35,225.413,87.5,187.5,87.5z M187.5,212.506
				c-31.013,0-56.256-25.237-56.256-56.256S156.481,100,187.5,100s56.263,25.231,56.263,56.25S218.513,212.506,187.5,212.506z"/>
			<path d="M187.5,112.5c-24.119,0-43.756,19.631-43.756,43.75S163.381,200,187.5,200c24.131,0,43.763-19.631,43.763-43.75
				S211.631,112.5,187.5,112.5z M187.5,187.5c-17.237,0-31.263-14.019-31.263-31.25S170.263,125,187.5,125
				s31.263,14.019,31.263,31.25S204.737,187.5,187.5,187.5z"/>
			<path d="M56.25,87.5c-3.456,0-6.25,2.794-6.25,6.25v125c0,3.456,2.794,6.25,6.25,6.25c3.45,0,6.25-2.794,6.25-6.25v-125
				C62.5,90.294,59.706,87.5,56.25,87.5z"/>
		</g>
	</g>
</g>
</svg>